REM DIRINDEX 1\2,1\3,1\4,1\5
REM DIRNAME folder01,folder02,folder03,folder04,folder05
TITLE ""
FILE "P1Q_t_0010-0019.mp3" MP3
  TRACK 01 AUDIO
    TITLE "3:cjc005_0930"
    INDEX 01 00:00:00
  TRACK 02 AUDIO
    TITLE "0:"
    INDEX 01 00:01:09
  TRACK 03 AUDIO
    TITLE "4:cjc005_0931"
    INDEX 01 00:01:36
  TRACK 04 AUDIO
    TITLE "0:"
    INDEX 01 00:02:73
  TRACK 05 AUDIO
    TITLE "5:cjc005_0932"
    INDEX 01 00:03:23
  TRACK 06 AUDIO
    TITLE "0:"
    INDEX 01 00:06:37
  TRACK 07 AUDIO
    TITLE "3:cjc005_0933"
    INDEX 01 00:07:09
  TRACK 08 AUDIO
    TITLE "0:"
    INDEX 01 00:08:28
  TRACK 09 AUDIO
    TITLE "4:cjc005_0934"
    INDEX 01 00:08:48
  TRACK 10 AUDIO
    TITLE "0:"
    INDEX 01 00:09:73
  TRACK 11 AUDIO
    TITLE "5:cjc005_0935"
    INDEX 01 00:10:18
  TRACK 12 AUDIO
    TITLE "0:"
    INDEX 01 00:14:06
  TRACK 13 AUDIO
    TITLE "3:cjc005_0936"
    INDEX 01 00:14:54
  TRACK 14 AUDIO
    TITLE "0:"
    INDEX 01 00:15:66
  TRACK 15 AUDIO
    TITLE "4:cjc005_0937"
    INDEX 01 00:16:14
  TRACK 16 AUDIO
    TITLE "0:"
    INDEX 01 00:17:49
  TRACK 17 AUDIO
    TITLE "5:cjc005_0938"
    INDEX 01 00:17:70
  TRACK 18 AUDIO
    TITLE "0:"
    INDEX 01 00:21:37
  TRACK 19 AUDIO
    TITLE "3:cjc005_0939"
    INDEX 01 00:22:09
  TRACK 20 AUDIO
    TITLE "0:"
    INDEX 01 00:23:18
  TRACK 21 AUDIO
    TITLE "4:cjc005_0940"
    INDEX 01 00:23:44
  TRACK 22 AUDIO
    TITLE "0:"
    INDEX 01 00:25:33
  TRACK 23 AUDIO
    TITLE "5:cjc005_0941"
    INDEX 01 00:25:54
  TRACK 24 AUDIO
    TITLE "0:"
    INDEX 01 00:29:72
  TRACK 25 AUDIO
    TITLE "3:cjc005_0942"
    INDEX 01 00:30:50
  TRACK 26 AUDIO
    TITLE "0:"
    INDEX 01 00:32:07
  TRACK 27 AUDIO
    TITLE "4:cjc005_0943"
    INDEX 01 00:32:29
  TRACK 28 AUDIO
    TITLE "0:"
    INDEX 01 00:34:14
  TRACK 29 AUDIO
    TITLE "5:cjc005_0944"
    INDEX 01 00:34:38
  TRACK 30 AUDIO
    TITLE "0:"
    INDEX 01 00:38:71
  TRACK 31 AUDIO
    TITLE "3:cjc005_0945"
    INDEX 01 00:39:52
  TRACK 32 AUDIO
    TITLE "0:"
    INDEX 01 00:41:00
  TRACK 33 AUDIO
    TITLE "4:cjc005_0946"
    INDEX 01 00:41:22
  TRACK 34 AUDIO
    TITLE "0:"
    INDEX 01 00:42:55
  TRACK 35 AUDIO
    TITLE "5:cjc005_0947"
    INDEX 01 00:43:07
  TRACK 36 AUDIO
    TITLE "0:"
    INDEX 01 00:47:58
  TRACK 37 AUDIO
    TITLE "3:cjc005_0948"
    INDEX 01 00:48:32
  TRACK 38 AUDIO
    TITLE "0:"
    INDEX 01 00:49:47
  TRACK 39 AUDIO
    TITLE "4:cjc005_0949"
    INDEX 01 00:49:74
  TRACK 40 AUDIO
    TITLE "0:"
    INDEX 01 00:51:32
  TRACK 41 AUDIO
    TITLE "5:cjc005_0950"
    INDEX 01 00:51:56
  TRACK 42 AUDIO
    TITLE "0:"
    INDEX 01 00:56:02
  TRACK 43 AUDIO
    TITLE "3:cjc005_0951"
    INDEX 01 00:56:49
  TRACK 44 AUDIO
    TITLE "0:"
    INDEX 01 00:57:62
  TRACK 45 AUDIO
    TITLE "4:cjc005_0952"
    INDEX 01 00:58:09
  TRACK 46 AUDIO
    TITLE "0:"
    INDEX 01 00:59:32
  TRACK 47 AUDIO
    TITLE "5:cjc005_0953"
    INDEX 01 00:59:57
  TRACK 48 AUDIO
    TITLE "0:"
    INDEX 01 01:03:29
  TRACK 49 AUDIO
    TITLE "3:cjc005_0954"
    INDEX 01 01:04:00
  TRACK 50 AUDIO
    TITLE "0:"
    INDEX 01 01:05:17
  TRACK 51 AUDIO
    TITLE "4:cjc005_0955"
    INDEX 01 01:05:42
  TRACK 52 AUDIO
    TITLE "0:"
    INDEX 01 01:06:69
  TRACK 53 AUDIO
    TITLE "5:cjc005_0956"
    INDEX 01 01:07:14
  TRACK 54 AUDIO
    TITLE "0:"
    INDEX 01 01:11:31
  TRACK 55 AUDIO
    TITLE "3:cjc005_0957"
    INDEX 01 01:12:05
  TRACK 56 AUDIO
    TITLE "0:"
    INDEX 01 01:13:20
  TRACK 57 AUDIO
    TITLE "4:cjc005_0958"
    INDEX 01 01:13:42
  TRACK 58 AUDIO
    TITLE "0:"
    INDEX 01 01:15:17
  TRACK 59 AUDIO
    TITLE "5:cjc005_0959"
    INDEX 01 01:15:37
  TRACK 60 AUDIO
    TITLE "0:"
    INDEX 01 01:20:10
